# File created by Blade
# Date/Time:  Tue Apr 07 20:40:51 2015
#---------------------------------------------------------
:version 1.10
:name HOM
:units
  mass 1.0
  length 1.000000
  angle deg
:documentation
     Acclaim Skeleton File
:root
   axis xyz
   order TX TY TZ RX RY RZ
   position 0.000000 0.000000 0.000000
   orientation 0 0 0
:bonedata
   begin
      id 1
      name Spine_dum
      direction 0.000000 1.000000 0.000000
      length 4.885285
      axis 0.0 0.0 0.0 xyz
   end
   begin
      id 2
      name LeftUpLeg_dum
      direction 1.000000 0.000000 0.000000
      length 2.672193
      axis 0.0 0.0 0.0 xyz
   end
   begin
      id 3
      name RightUpLeg_dum
      direction -1.000000 0.000000 0.000000
      length 2.672193
      axis 0.0 0.0 0.0 xyz
   end
   begin
      id 4
      name Spine
      direction 0.000000 1.000000 0.000000
      length 0.000000
      axis 0.0 0.0 0.0 xyz
      dof rx ry rz
   end
   begin
      id 5
      name Spine_dum1
      direction 0.000000 1.000000 0.000000
      length 16.494159
      axis 0.0 0.0 0.0 xyz
   end
   begin
      id 6
      name Spine_dum2
      direction 0.000000 1.000000 0.000000
      length 10.663448
      axis 0.0 0.0 0.0 xyz
   end
   begin
      id 7
      name Spine_dum3
      direction 0.000000 1.000000 0.000000
      length 10.663448
      axis 0.0 0.0 0.0 xyz
   end
   begin
      id 8
      name Head
      direction 0.000000 1.000000 0.000000
      length 4.527550
      axis 0.0 0.0 0.0 xyz
      dof rx ry rz
   end
   begin
      id 9
      name LeftShoulder
      direction 1.000000 0.000000 0.000000
      length 7.531907
      axis 0.0 0.0 -90.0 xyz
      dof rx ry rz
   end
   begin
      id 10
      name LeftArm
      direction 1.000000 0.000000 0.000000
      length 10.229199
      axis 0.0 0.0 -90.0 xyz
      dof rx ry rz
   end
   begin
      id 11
      name LeftForeArm
      direction 1.000000 0.000000 0.000000
      length 8.673495
      axis 0.0 0.0 -90.0 xyz
      dof ry rz rx
   end
   begin
      id 12
      name LeftHand
      direction 0.000000 0.000000 0.000000
      length 0.000000
      axis 0.0 0.0 -90.0 xyz
      dof rx ry rz
   end
   begin
      id 13
      name LeftHand_dum1
      direction 0.000000 0.000000 0.000000
      length 0.000000
      axis 0.0 0.0 -90.0 xyz
   end
   begin
      id 14
      name LeftHand_dum2
      direction 1.000000 0.000000 0.000000
      length 3.937000
      axis 0.0 0.0 -90.0 xyz
   end
   begin
      id 15
      name LeftHandThumb1
      direction 0.000000 0.000000 1.000000
      length 3.937000
      axis 0.0 0.0 -90.0 xyz
      dof rx rz ry
   end
   begin
      id 16
      name RightShoulder
      direction -1.000000 0.000000 0.000000
      length 7.531907
      axis 0.0 0.0 90.0 xyz
      dof rx ry rz
   end
   begin
      id 17
      name RightArm
      direction -1.000000 0.000000 0.000000
      length 10.229199
      axis 0.0 0.0 90.0 xyz
      dof rx ry rz
   end
   begin
      id 18
      name RightForeArm
      direction -1.000000 0.000000 0.000000
      length 8.673495
      axis 0.0 0.0 90.0 xyz
      dof ry rz rx
   end
   begin
      id 19
      name RightHand
      direction 0.000000 0.000000 0.000000
      length 0.000000
      axis 0.0 0.0 90.0 xyz
      dof rx ry rz
   end
   begin
      id 20
      name RightHand_dum1
      direction 0.000000 0.000000 0.000000
      length 0.000000
      axis 0.0 0.0 90.0 xyz
   end
   begin
      id 21
      name RightHand_dum2
      direction -1.000000 0.000000 0.000000
      length 3.937000
      axis 0.0 0.0 90.0 xyz
   end
   begin
      id 22
      name RightHandThumb1
      direction 0.000000 0.000000 1.000000
      length 3.937000
      axis 0.0 0.0 90.0 xyz
      dof rx rz ry
   end
   begin
      id 23
      name LeftUpLeg
      direction 0.000000 -1.000000 0.000000
      length 16.263388
      axis 0.0 0.0 0.0 xyz
      dof rx ry rz
   end
   begin
      id 24
      name LeftLeg
      direction 0.000000 -1.000000 0.000000
      length 14.328163
      axis 0.0 0.0 0.0 xyz
      dof rx ry rz
   end
   begin
      id 25
      name LeftFoot
      direction 0.000000 -0.258819 0.965926
      length 5.031290
      axis 15.0 0.0 0.0 xyz
      dof rx ry rz
   end
   begin
      id 26
      name LeftToeBase
      direction 0.000000 0.000000 1.000000
      length 2.952750
      axis 0.0 0.0 0.0 xyz
      dof rx ry rz
   end
   begin
      id 27
      name RightUpLeg
      direction 0.000000 -1.000000 0.000000
      length 16.263388
      axis 0.0 0.0 0.0 xyz
      dof rx ry rz
   end
   begin
      id 28
      name RightLeg
      direction 0.000000 -1.000000 0.000000
      length 14.328163
      axis 0.0 0.0 0.0 xyz
      dof rx ry rz
   end
   begin
      id 29
      name RightFoot
      direction 0.000000 -0.258819 0.965926
      length 5.031290
      axis 15.0 0.0 0.0 xyz
      dof rx ry rz
   end
   begin
      id 30
      name RightToeBase
      direction 0.000000 0.000000 1.000000
      length 2.952750
      axis 0.0 0.0 0.0 xyz
      dof rx ry rz
   end
:hierarchy
   begin
      root Spine_dum LeftUpLeg_dum RightUpLeg_dum
      Spine_dum Spine
      LeftUpLeg_dum LeftUpLeg
      RightUpLeg_dum RightUpLeg
      Spine Spine_dum1 Spine_dum2 Spine_dum3
      Spine_dum1 Head
      Spine_dum2 LeftShoulder
      Spine_dum3 RightShoulder
      LeftShoulder LeftArm
      LeftArm LeftForeArm
      LeftForeArm LeftHand
      LeftHand LeftHand_dum1 LeftHand_dum2
      LeftHand_dum1 LeftHandThumb1
      RightShoulder RightArm
      RightArm RightForeArm
      RightForeArm RightHand
      RightHand RightHand_dum1 RightHand_dum2
      RightHand_dum1 RightHandThumb1
      LeftUpLeg LeftLeg
      LeftLeg LeftFoot
      LeftFoot LeftToeBase
      RightUpLeg RightLeg
      RightLeg RightFoot
      RightFoot RightToeBase
   end

# File created by Blade
# Date/Time:  Tue Apr 07 20:41:02 2015
# Frame Rate: 120.000 fps
#------------------------------------------------------
:FULLY-SPECIFIED
:DEGREES
285
root 1.895051 32.850371 1.801594 10.580980 4.194251 0.799848
Spine -13.107041 -7.516576 -3.129725
Head 6.844421 -4.311680 2.115347
LeftShoulder -19.368968 40.355339 20.691081
LeftArm 56.895357 -53.555698 -59.580405
LeftForeArm 9.070794 -0.000000 12.946077
LeftHand 4.779320 -0.000000 13.120900
LeftHandThumb1 -26.253704 0.000000 33.147579
RightShoulder -7.415392 5.213638 -29.475723
RightArm 11.781119 15.221295 41.558015
RightForeArm -11.423419 0.000000 4.190853
RightHand 5.645768 -0.000000 -5.626648
RightHandThumb1 -24.326973 -0.000000 -32.862282
LeftUpLeg -3.317538 -2.349950 -3.127679
LeftLeg -4.543458 -0.000000 0.000000
LeftFoot -4.458879 9.960974 -13.720010
LeftToeBase -4.465529 -0.000000 0.000000
RightUpLeg -4.457729 -5.084962 -1.332676
RightLeg -0.294814 -0.000000 0.000000
RightFoot -9.150950 -5.666323 7.424102
RightToeBase 0.937455 -0.000000 -0.000000
286
root 1.904758 32.852454 1.765952 10.549000 4.095175 0.701587
Spine -12.968866 -7.445366 -3.023016
Head 6.896320 -4.202519 2.025353
LeftShoulder -19.410183 40.461494 20.409601
LeftArm 57.149836 -53.252298 -60.267260
LeftForeArm 9.293266 -0.000000 13.412583
LeftHand 4.785059 -0.000000 13.072823
LeftHandThumb1 -26.253704 0.000000 33.147579
RightShoulder -7.269732 5.268358 -29.368379
RightArm 11.801672 15.212479 42.054130
RightForeArm -11.310494 -0.000000 4.346664
RightHand 5.826492 -0.000000 -5.706261
RightHandThumb1 -24.326973 -0.000000 -32.862282
LeftUpLeg -3.463581 -2.404566 -3.088263
LeftLeg -4.315117 -0.000000 0.000000
LeftFoot -4.670275 10.209296 -13.578605
LeftToeBase -4.394798 -0.000000 0.000000
RightUpLeg -4.689165 -5.097072 -1.248651
RightLeg 0.080395 -0.000000 -0.000000
RightFoot -9.245433 -5.605600 7.411314
RightToeBase 0.943458 -0.000000 -0.000000
287
root 1.915381 32.852804 1.728555 10.495067 3.996151 0.604580
Spine -12.800276 -7.376405 -2.912950
Head 6.948105 -4.036026 1.884786
LeftShoulder -19.416359 40.532421 20.195199
LeftArm 57.391317 -52.901637 -61.071873
LeftForeArm 9.445459 0.000000 13.931086
LeftHand 4.974201 -0.000000 12.889050
LeftHandThumb1 -26.253704 0.000000 33.147579
RightShoulder -7.116375 5.285797 -29.250539
RightArm 11.876167 15.174469 42.543257
RightForeArm -11.059809 -0.000000 4.467259
RightHand 5.831227 0.000000 -5.429353
RightHandThumb1 -24.326973 -0.000000 -32.862282
LeftUpLeg -3.583053 -2.438657 -3.065426
LeftLeg -4.119587 -0.000000 0.000000
LeftFoot -4.871441 10.502189 -13.402737
LeftToeBase -4.261653 -0.000000 0.000000
RightUpLeg -4.910030 -5.110536 -1.170116
RightLeg 0.468530 -0.000000 -0.000000
RightFoot -9.355805 -5.544340 7.408277
RightToeBase 0.971788 -0.000000 -0.000000
288
root 1.926271 32.853714 1.690595 10.423006 3.887065 0.501476
Spine -12.600846 -7.308240 -2.801181
Head 6.951554 -3.916946 1.802866
LeftShoulder -19.445192 40.619236 19.923847
LeftArm 57.528853 -52.456284 -61.671861
LeftForeArm 9.633978 -0.000000 14.374360
LeftHand 5.039849 -0.000000 13.480118
LeftHandThumb1 -26.253704 0.000000 33.147579
RightShoulder -6.946541 5.247799 -29.095123
RightArm 12.023947 15.032894 43.017568
RightForeArm -10.804214 -0.000000 4.489389
RightHand 5.997175 -0.000000 -5.584834
RightHandThumb1 -24.326973 -0.000000 -32.862282
LeftUpLeg -3.672387 -2.446943 -3.037937
LeftLeg -3.944793 -0.000000 0.000000
LeftFoot -5.026179 10.764872 -13.199941
LeftToeBase -4.172061 -0.000000 0.000000
RightUpLeg -5.114636 -5.105200 -1.093169
RightLeg 0.856255 -0.000000 -0.000000
RightFoot -9.445440 -5.469157 7.397871
RightToeBase 0.969577 -0.000000 -0.000000
289
root 1.939141 32.853856 1.655132 10.322017 3.778371 0.419070
Spine -12.373024 -7.257202 -2.716966
Head 6.961579 -3.813542 1.735742
LeftShoulder -19.461032 40.719731 19.668376
LeftArm 57.572351 -51.933172 -62.180347
LeftForeArm 9.629307 -0.000000 14.787592
LeftHand 5.054579 -0.000000 13.943663
LeftHandThumb1 -26.253704 0.000000 33.147579
RightShoulder -6.779414 5.118939 -28.910066
RightArm 12.295380 14.946170 43.540165
RightForeArm -10.433232 0.000000 4.471978
RightHand 6.041633 -0.000000 -5.657013
RightHandThumb1 -24.326973 -0.000000 -32.862282
LeftUpLeg -3.703623 -2.456171 -3.030229
LeftLeg -3.809982 -0.000000 0.000000
LeftFoot -5.155774 11.019436 -12.991916
LeftToeBase -4.101213 -0.000000 0.000000
RightUpLeg -5.306064 -5.118792 -1.041605
RightLeg 1.289587 -0.000000 -0.000000
RightFoot -9.563423 -5.401400 7.373175
RightToeBase 0.969058 -0.000000 -0.000000
